<?xml version="1.0" encoding="UTF-8" standalone="no"?>
<!DOCTYPE svg PUBLIC "-//W3C//DTD SVG 1.1//EN"
 "http://www.w3.org/Graphics/SVG/1.1/DTD/svg11.dtd">
<!-- Generated by graphviz version 2.43.0 (0)
 -->
<!-- Title: %3 Pages: 1 -->
<svg width="1233pt" height="318pt"
 viewBox="0.00 0.00 1233.00 318.00" xmlns="http://www.w3.org/2000/svg" xmlns:xlink="http://www.w3.org/1999/xlink">
<g id="graph0" class="graph" transform="scale(1 1) rotate(0) translate(4 314)">
<title>%3</title>
<!-- Handler -->
<g id="node1" class="node">
<title>Handler</title>
<polygon fill="none" stroke="#5e8052" points="161,-157 95,-157 91,-153 91,-121 157,-121 161,-125 161,-157"/>
<polyline fill="none" stroke="#5e8052" points="157,-153 91,-153 "/>
<polyline fill="none" stroke="#5e8052" points="157,-153 157,-121 "/>
<polyline fill="none" stroke="#5e8052" points="157,-153 161,-157 "/>
<text text-anchor="middle" x="126" y="-135.3" font-family="Lucida Grande, Lucida Sans Unicode, sans-serif" font-size="14.00" fill="#5e8052">Handler</text>
</g>
<!-- Engine -->
<g id="node2" class="node">
<title>Engine</title>
<polygon fill="none" stroke="#5e8052" points="260,-226 202,-226 198,-222 198,-190 256,-190 260,-194 260,-226"/>
<polyline fill="none" stroke="#5e8052" points="256,-222 198,-222 "/>
<polyline fill="none" stroke="#5e8052" points="256,-222 256,-190 "/>
<polyline fill="none" stroke="#5e8052" points="256,-222 260,-226 "/>
<text text-anchor="middle" x="229" y="-204.3" font-family="Lucida Grande, Lucida Sans Unicode, sans-serif" font-size="14.00" fill="#5e8052">Engine</text>
</g>
<!-- Handler&#45;&gt;Engine -->
<g id="edge18" class="edge">
<title>Handler&#45;&gt;Engine</title>
<path fill="none" stroke="#777777" d="M153.54,-157.13C165.71,-165.45 180.31,-175.42 193.34,-184.32"/>
<polygon fill="#777777" stroke="#777777" points="191.41,-187.24 201.64,-189.99 195.36,-181.46 191.41,-187.24"/>
</g>
<!-- Resource -->
<g id="node8" class="node">
<title>Resource</title>
<polygon fill="none" stroke="#777777" stroke-dasharray="1,5" points="1094.5,-56 1019.5,-56 1015.5,-52 1015.5,-20 1090.5,-20 1094.5,-24 1094.5,-56"/>
<polyline fill="none" stroke="#777777" stroke-dasharray="1,5" points="1090.5,-52 1015.5,-52 "/>
<polyline fill="none" stroke="#777777" stroke-dasharray="1,5" points="1090.5,-52 1090.5,-20 "/>
<polyline fill="none" stroke="#777777" stroke-dasharray="1,5" points="1090.5,-52 1094.5,-56 "/>
<text text-anchor="middle" x="1055" y="-34.3" font-family="Lucida Grande, Lucida Sans Unicode, sans-serif" font-size="14.00" fill="#777777">Resource</text>
</g>
<!-- Handler&#45;&gt;Resource -->
<g id="edge17" class="edge">
<title>Handler&#45;&gt;Resource</title>
<path fill="none" stroke="#777777" d="M141.38,-120.83C172.97,-83.15 252.57,0 340,0 340,0 340,0 811,0 878.97,0 956.36,-14.69 1005.18,-25.8"/>
<polygon fill="#777777" stroke="#777777" points="1004.62,-29.27 1015.15,-28.12 1006.2,-22.45 1004.62,-29.27"/>
</g>
<!-- GraphDB -->
<g id="node9" class="node">
<title>GraphDB</title>
<path fill="none" stroke="#777777" d="M505.5,-298.48C505.5,-301.11 487.8,-303.25 466,-303.25 444.2,-303.25 426.5,-301.11 426.5,-298.48 426.5,-298.48 426.5,-255.52 426.5,-255.52 426.5,-252.89 444.2,-250.75 466,-250.75 487.8,-250.75 505.5,-252.89 505.5,-255.52 505.5,-255.52 505.5,-298.48 505.5,-298.48"/>
<path fill="none" stroke="#777777" d="M505.5,-298.48C505.5,-295.84 487.8,-293.7 466,-293.7 444.2,-293.7 426.5,-295.84 426.5,-298.48"/>
<text text-anchor="middle" x="466" y="-280.8" font-family="Lucida Grande, Lucida Sans Unicode, sans-serif" font-size="14.00" fill="#777777">Graph</text>
<text text-anchor="middle" x="466" y="-265.8" font-family="Lucida Grande, Lucida Sans Unicode, sans-serif" font-size="14.00" fill="#777777">Database</text>
</g>
<!-- Engine&#45;&gt;GraphDB -->
<g id="edge15" class="edge">
<title>Engine&#45;&gt;GraphDB</title>
<path fill="none" stroke="#777777" d="M260.24,-216.88C299.82,-228.5 369.67,-249.01 416.63,-262.8"/>
<polygon fill="#777777" stroke="#777777" points="415.71,-266.18 426.29,-265.63 417.68,-259.46 415.71,-266.18"/>
</g>
<!-- P_Registry -->
<g id="node11" class="node">
<title>P_Registry</title>
<polygon fill="none" stroke="#5a7a98" points="729,-208 645,-208 645,-170 729,-170 729,-208"/>
<text text-anchor="middle" x="687" y="-192.8" font-family="Lucida Grande, Lucida Sans Unicode, sans-serif" font-size="14.00" fill="#5a7a98">Parameter</text>
<text text-anchor="middle" x="687" y="-177.8" font-family="Lucida Grande, Lucida Sans Unicode, sans-serif" font-size="14.00" fill="#5a7a98">Registry</text>
</g>
<!-- Engine&#45;&gt;P_Registry -->
<g id="edge5" class="edge">
<title>Engine&#45;&gt;P_Registry</title>
<path fill="none" stroke="#777777" d="M270.45,-206.31C353.53,-202.85 543.23,-194.95 634.75,-191.14"/>
<polygon fill="#777777" stroke="#777777" points="270.12,-202.83 260.27,-206.74 270.41,-209.82 270.12,-202.83"/>
<polygon fill="#777777" stroke="#777777" points="635.03,-194.63 644.88,-190.71 634.74,-187.63 635.03,-194.63"/>
</g>
<!-- Dispatcher -->
<g id="node15" class="node">
<title>Dispatcher</title>
<polygon fill="none" stroke="#777777" points="386,-157 296,-157 296,-121 386,-121 386,-157"/>
<text text-anchor="middle" x="341" y="-135.3" font-family="Lucida Grande, Lucida Sans Unicode, sans-serif" font-size="14.00" fill="#777777">Dispatcher</text>
</g>
<!-- Engine&#45;&gt;Dispatcher -->
<g id="edge1" class="edge">
<title>Engine&#45;&gt;Dispatcher</title>
<path fill="none" stroke="#777777" d="M267.55,-184.45C278.84,-177.37 291.23,-169.59 302.52,-162.51"/>
<polygon fill="#777777" stroke="#777777" points="265.51,-181.59 258.9,-189.87 269.23,-187.52 265.51,-181.59"/>
<polygon fill="#777777" stroke="#777777" points="304.68,-165.29 311.29,-157.01 300.96,-159.36 304.68,-165.29"/>
</g>
<!-- Resolver -->
<g id="node17" class="node">
<title>Resolver</title>
<polygon fill="none" stroke="#777777" points="378,-310 304,-310 304,-274 378,-274 378,-310"/>
<text text-anchor="middle" x="341" y="-288.3" font-family="Lucida Grande, Lucida Sans Unicode, sans-serif" font-size="14.00" fill="#777777">Resolver</text>
</g>
<!-- Engine&#45;&gt;Resolver -->
<g id="edge13" class="edge">
<title>Engine&#45;&gt;Resolver</title>
<path fill="none" stroke="#777777" d="M252.44,-226.03C265.13,-236.13 281.35,-248.91 296,-260 299.39,-262.57 302.95,-265.22 306.51,-267.85"/>
<polygon fill="#777777" stroke="#777777" points="304.61,-270.8 314.75,-273.89 308.75,-265.15 304.61,-270.8"/>
</g>
<!-- Parameter -->
<g id="node3" class="node">
<title>Parameter</title>
<polygon fill="none" stroke="#5a7a98" points="1221,-226 1141,-226 1137,-222 1137,-188 1217,-188 1221,-192 1221,-226"/>
<polyline fill="none" stroke="#5a7a98" points="1217,-222 1137,-222 "/>
<polyline fill="none" stroke="#5a7a98" points="1217,-222 1217,-188 "/>
<polyline fill="none" stroke="#5a7a98" points="1217,-222 1221,-226 "/>
<text text-anchor="middle" x="1179" y="-210.8" font-family="Lucida Grande, Lucida Sans Unicode, sans-serif" font-size="14.00" fill="#5a7a98">Parameter</text>
<text text-anchor="middle" x="1179" y="-195.8" font-family="Lucida Grande, Lucida Sans Unicode, sans-serif" font-size="14.00" fill="#5a7a98">Template</text>
</g>
<!-- P_Group -->
<g id="node4" class="node">
<title>P_Group</title>
<polygon fill="none" stroke="#5a7a98" points="1097,-189 1017,-189 1013,-185 1013,-151 1093,-151 1097,-155 1097,-189"/>
<polyline fill="none" stroke="#5a7a98" points="1093,-185 1013,-185 "/>
<polyline fill="none" stroke="#5a7a98" points="1093,-185 1093,-151 "/>
<polyline fill="none" stroke="#5a7a98" points="1093,-185 1097,-189 "/>
<text text-anchor="middle" x="1055" y="-173.8" font-family="Lucida Grande, Lucida Sans Unicode, sans-serif" font-size="14.00" fill="#5a7a98">Parameter</text>
<text text-anchor="middle" x="1055" y="-158.8" font-family="Lucida Grande, Lucida Sans Unicode, sans-serif" font-size="14.00" fill="#5a7a98">Group</text>
</g>
<!-- P_Group&#45;&gt;Parameter -->
<g id="edge26" class="edge">
<title>P_Group&#45;&gt;Parameter</title>
<path fill="none" stroke="#777777" d="M1097.3,-182.53C1106.84,-185.42 1117.1,-188.53 1127,-191.53"/>
<polygon fill="#777777" stroke="#777777" points="1126.15,-194.93 1136.74,-194.49 1128.19,-188.23 1126.15,-194.93"/>
</g>
<!-- P_Instance -->
<g id="node12" class="node">
<title>P_Instance</title>
<polygon fill="none" stroke="#5a7a98" points="1225,-161 1133,-161 1133,-123 1225,-123 1225,-161"/>
<text text-anchor="middle" x="1179" y="-145.8" font-family="Lucida Grande, Lucida Sans Unicode, sans-serif" font-size="14.00" fill="#5a7a98">Parameters</text>
<text text-anchor="middle" x="1179" y="-130.8" font-family="Lucida Grande, Lucida Sans Unicode, sans-serif" font-size="14.00" fill="#5a7a98">(Instance)</text>
</g>
<!-- P_Group&#45;&gt;P_Instance -->
<g id="edge7" class="edge">
<title>P_Group&#45;&gt;P_Instance</title>
<path fill="none" stroke="#777777" d="M1107.19,-158.25C1112.41,-157.05 1117.72,-155.83 1122.98,-154.63"/>
<polygon fill="#777777" stroke="#777777" points="1106.27,-154.87 1097.3,-160.52 1107.83,-161.69 1106.27,-154.87"/>
<polygon fill="#777777" stroke="#777777" points="1124.01,-157.98 1132.97,-152.33 1122.44,-151.16 1124.01,-157.98"/>
</g>
<!-- Queue -->
<g id="node5" class="node">
<title>Queue</title>
<polygon fill="none" stroke="#bc566e" points="731,-123 647,-123 643,-119 643,-85 727,-85 731,-89 731,-123"/>
<polyline fill="none" stroke="#bc566e" points="727,-119 643,-119 "/>
<polyline fill="none" stroke="#bc566e" points="727,-119 727,-85 "/>
<polyline fill="none" stroke="#bc566e" points="727,-119 731,-123 "/>
<text text-anchor="middle" x="687" y="-107.8" font-family="Lucida Grande, Lucida Sans Unicode, sans-serif" font-size="14.00" fill="#bc566e">Transform</text>
<text text-anchor="middle" x="687" y="-92.8" font-family="Lucida Grande, Lucida Sans Unicode, sans-serif" font-size="14.00" fill="#bc566e">Queue</text>
</g>
<!-- Entry -->
<g id="node6" class="node">
<title>Entry</title>
<polygon fill="none" stroke="#bc566e" points="977,-95 893,-95 889,-91 889,-57 973,-57 977,-61 977,-95"/>
<polyline fill="none" stroke="#bc566e" points="973,-91 889,-91 "/>
<polyline fill="none" stroke="#bc566e" points="973,-91 973,-57 "/>
<polyline fill="none" stroke="#bc566e" points="973,-91 977,-95 "/>
<text text-anchor="middle" x="933" y="-79.8" font-family="Lucida Grande, Lucida Sans Unicode, sans-serif" font-size="14.00" fill="#bc566e">Transform</text>
<text text-anchor="middle" x="933" y="-64.8" font-family="Lucida Grande, Lucida Sans Unicode, sans-serif" font-size="14.00" fill="#bc566e">(Metadata)</text>
</g>
<!-- Queue&#45;&gt;Entry -->
<g id="edge19" class="edge">
<title>Queue&#45;&gt;Entry</title>
<path fill="none" stroke="#777777" d="M731.06,-99.06C772.31,-94.32 834.66,-87.17 878.96,-82.09"/>
<polygon fill="#777777" stroke="#777777" points="879.42,-85.56 888.96,-80.94 878.63,-78.6 879.42,-85.56"/>
</g>
<!-- Partial -->
<g id="node7" class="node">
<title>Partial</title>
<polygon fill="none" stroke="#bc566e" points="853,-142 771,-142 767,-138 767,-104 849,-104 853,-108 853,-142"/>
<polyline fill="none" stroke="#bc566e" points="849,-138 767,-138 "/>
<polyline fill="none" stroke="#bc566e" points="849,-138 849,-104 "/>
<polyline fill="none" stroke="#bc566e" points="849,-138 853,-142 "/>
<text text-anchor="middle" x="810" y="-126.8" font-family="Lucida Grande, Lucida Sans Unicode, sans-serif" font-size="14.00" fill="#bc566e">Partial</text>
<text text-anchor="middle" x="810" y="-111.8" font-family="Lucida Grande, Lucida Sans Unicode, sans-serif" font-size="14.00" fill="#bc566e">Invocation</text>
</g>
<!-- Queue&#45;&gt;Partial -->
<g id="edge23" class="edge">
<title>Queue&#45;&gt;Partial</title>
<path fill="none" stroke="#777777" d="M731,-110.75C739.4,-112.07 748.29,-113.47 756.94,-114.83"/>
<polygon fill="#777777" stroke="#777777" points="756.53,-118.3 766.95,-116.4 757.61,-111.39 756.53,-118.3"/>
</g>
<!-- Entry&#45;&gt;P_Group -->
<g id="edge10" class="edge">
<title>Entry&#45;&gt;P_Group</title>
<path fill="none" stroke="#777777" stroke-dasharray="1,5" d="M958.28,-95.02C976.46,-109.26 1001.52,-128.89 1021.43,-144.49"/>
<polygon fill="#777777" stroke="#777777" points="1019.31,-147.27 1029.34,-150.68 1023.63,-141.76 1019.31,-147.27"/>
</g>
<!-- Entry&#45;&gt;Resource -->
<g id="edge9" class="edge">
<title>Entry&#45;&gt;Resource</title>
<path fill="none" stroke="#777777" stroke-dasharray="1,5" d="M977.32,-62.28C986.49,-59.38 996.22,-56.3 1005.57,-53.34"/>
<polygon fill="#777777" stroke="#777777" points="1006.65,-56.67 1015.12,-50.31 1004.53,-49.99 1006.65,-56.67"/>
</g>
<!-- T_Harness -->
<g id="node13" class="node">
<title>T_Harness</title>
<polygon fill="none" stroke="#bc566e" points="510,-142 422,-142 422,-104 510,-104 510,-142"/>
<text text-anchor="middle" x="466" y="-126.8" font-family="Lucida Grande, Lucida Sans Unicode, sans-serif" font-size="14.00" fill="#bc566e">Transform</text>
<text text-anchor="middle" x="466" y="-111.8" font-family="Lucida Grande, Lucida Sans Unicode, sans-serif" font-size="14.00" fill="#bc566e">Harness</text>
</g>
<!-- Entry&#45;&gt;T_Harness -->
<g id="edge20" class="edge">
<title>Entry&#45;&gt;T_Harness</title>
<path fill="none" stroke="#777777" d="M888.74,-70.8C816.3,-63.52 666.51,-54.64 546,-88 535.15,-91 523.88,-95.25 513.36,-99.76"/>
<polygon fill="#777777" stroke="#777777" points="511.66,-96.68 503.94,-103.94 514.5,-103.08 511.66,-96.68"/>
</g>
<!-- Partial&#45;&gt;Entry -->
<g id="edge24" class="edge">
<title>Partial&#45;&gt;Entry</title>
<path fill="none" stroke="#777777" d="M853.32,-106.56C861.73,-103.3 870.65,-99.83 879.36,-96.45"/>
<polygon fill="#777777" stroke="#777777" points="880.63,-99.71 888.68,-92.83 878.09,-93.19 880.63,-99.71"/>
</g>
<!-- Partial&#45;&gt;P_Instance -->
<g id="edge25" class="edge">
<title>Partial&#45;&gt;P_Instance</title>
<path fill="none" stroke="#777777" d="M853.1,-125.18C919.63,-128.62 1049.1,-135.33 1122.93,-139.15"/>
<polygon fill="#777777" stroke="#777777" points="1122.8,-142.65 1132.96,-139.67 1123.16,-135.66 1122.8,-142.65"/>
</g>
<!-- Harness -->
<g id="node10" class="node">
<title>Harness</title>
<polygon fill="none" stroke="#5e8052" points="162,-226 90,-226 90,-190 162,-190 162,-226"/>
<text text-anchor="middle" x="126" y="-204.3" font-family="Lucida Grande, Lucida Sans Unicode, sans-serif" font-size="14.00" fill="#5e8052">Harness</text>
</g>
<!-- Harness&#45;&gt;Engine -->
<g id="edge12" class="edge">
<title>Harness&#45;&gt;Engine</title>
<path fill="none" stroke="#777777" d="M162.04,-208C170.3,-208 179.18,-208 187.66,-208"/>
<polygon fill="#777777" stroke="#777777" points="187.73,-211.5 197.73,-208 187.73,-204.5 187.73,-211.5"/>
</g>
<!-- P_Registry&#45;&gt;Parameter -->
<g id="edge8" class="edge">
<title>P_Registry&#45;&gt;Parameter</title>
<path fill="none" stroke="#777777" d="M739.53,-194.03C748.67,-194.79 758.11,-195.49 767,-196 896.41,-203.46 1049.03,-205.87 1126.82,-206.64"/>
<polygon fill="#777777" stroke="#777777" points="739.64,-190.52 729.38,-193.15 739.04,-197.5 739.64,-190.52"/>
<polygon fill="#777777" stroke="#777777" points="1126.81,-210.14 1136.84,-206.74 1126.87,-203.14 1126.81,-210.14"/>
</g>
<!-- P_Registry&#45;&gt;P_Group -->
<g id="edge6" class="edge">
<title>P_Registry&#45;&gt;P_Group</title>
<path fill="none" stroke="#777777" d="M739.65,-186.32C809.4,-182.7 932.97,-176.28 1002.6,-172.67"/>
<polygon fill="#777777" stroke="#777777" points="739.08,-182.84 729.27,-186.86 739.44,-189.83 739.08,-182.84"/>
<polygon fill="#777777" stroke="#777777" points="1003.07,-176.15 1012.88,-172.13 1002.71,-169.16 1003.07,-176.15"/>
</g>
<!-- T_Harness&#45;&gt;Queue -->
<g id="edge4" class="edge">
<title>T_Harness&#45;&gt;Queue</title>
<path fill="none" stroke="#777777" d="M519.75,-101.54C528.39,-98.83 537.35,-96.49 546,-95 574.4,-90.12 606.44,-91.67 632.7,-94.75"/>
<polygon fill="#777777" stroke="#777777" points="518.55,-98.25 510.16,-104.73 520.76,-104.89 518.55,-98.25"/>
<polygon fill="#777777" stroke="#777777" points="632.47,-98.25 642.83,-96.05 633.36,-91.31 632.47,-98.25"/>
</g>
<!-- T_Harness&#45;&gt;P_Registry -->
<g id="edge21" class="edge">
<title>T_Harness&#45;&gt;P_Registry</title>
<path fill="none" stroke="#777777" d="M510.27,-139C521.82,-143.09 534.33,-147.35 546,-151 575.2,-160.12 608.22,-169.15 634.85,-176.11"/>
<polygon fill="#777777" stroke="#777777" points="634.16,-179.55 644.72,-178.67 635.92,-172.77 634.16,-179.55"/>
</g>
<!-- Chain -->
<g id="node14" class="node">
<title>Chain</title>
<polygon fill="none" stroke="#bc566e" points="607,-142 546,-142 546,-104 607,-104 607,-142"/>
<text text-anchor="middle" x="576.5" y="-126.8" font-family="Lucida Grande, Lucida Sans Unicode, sans-serif" font-size="14.00" fill="#bc566e">Queue</text>
<text text-anchor="middle" x="576.5" y="-111.8" font-family="Lucida Grande, Lucida Sans Unicode, sans-serif" font-size="14.00" fill="#bc566e">Chain</text>
</g>
<!-- T_Harness&#45;&gt;Chain -->
<g id="edge3" class="edge">
<title>T_Harness&#45;&gt;Chain</title>
<path fill="none" stroke="#777777" d="M520.39,-123C525.44,-123 530.51,-123 535.41,-123"/>
<polygon fill="#777777" stroke="#777777" points="520.19,-119.5 510.19,-123 520.19,-126.5 520.19,-119.5"/>
<polygon fill="#777777" stroke="#777777" points="535.8,-126.5 545.8,-123 535.8,-119.5 535.8,-126.5"/>
</g>
<!-- Chain&#45;&gt;Queue -->
<g id="edge22" class="edge">
<title>Chain&#45;&gt;Queue</title>
<path fill="none" stroke="#777777" d="M607.15,-117.81C615.17,-116.4 624.11,-114.84 633,-113.28"/>
<polygon fill="#777777" stroke="#777777" points="633.72,-116.71 642.96,-111.54 632.51,-109.81 633.72,-116.71"/>
</g>
<!-- Dispatcher&#45;&gt;Handler -->
<g id="edge16" class="edge">
<title>Dispatcher&#45;&gt;Handler</title>
<path fill="none" stroke="#777777" d="M295.88,-139C259.49,-139 208.09,-139 171.57,-139"/>
<polygon fill="#777777" stroke="#777777" points="171.22,-135.5 161.22,-139 171.22,-142.5 171.22,-135.5"/>
</g>
<!-- Dispatcher&#45;&gt;T_Harness -->
<g id="edge2" class="edge">
<title>Dispatcher&#45;&gt;T_Harness</title>
<path fill="none" stroke="#777777" d="M396,-131.98C401.1,-131.31 406.26,-130.64 411.36,-129.98"/>
<polygon fill="#777777" stroke="#777777" points="395.52,-128.51 386.06,-133.27 396.43,-135.45 395.52,-128.51"/>
<polygon fill="#777777" stroke="#777777" points="412.2,-133.4 421.66,-128.64 411.29,-126.46 412.2,-133.4"/>
</g>
<!-- CLI -->
<g id="node16" class="node">
<title>CLI</title>
<polygon fill="none" stroke="#777777" points="54,-226 0,-226 0,-190 54,-190 54,-226"/>
<text text-anchor="middle" x="27" y="-204.3" font-family="Lucida Grande, Lucida Sans Unicode, sans-serif" font-size="14.00" fill="#777777">CLI</text>
</g>
<!-- CLI&#45;&gt;Harness -->
<g id="edge11" class="edge">
<title>CLI&#45;&gt;Harness</title>
<path fill="none" stroke="#777777" d="M54.25,-208C62.15,-208 71.06,-208 79.83,-208"/>
<polygon fill="#777777" stroke="#777777" points="79.98,-211.5 89.98,-208 79.98,-204.5 79.98,-211.5"/>
</g>
<!-- Resolver&#45;&gt;GraphDB -->
<g id="edge14" class="edge">
<title>Resolver&#45;&gt;GraphDB</title>
<path fill="none" stroke="#777777" d="M378.24,-287.58C390.2,-286.12 403.71,-284.47 416.45,-282.92"/>
<polygon fill="#777777" stroke="#777777" points="416.95,-286.39 426.45,-281.7 416.1,-279.44 416.95,-286.39"/>
</g>
</g>
</svg>
