<?xml version="1.0" encoding="UTF-8" standalone="no"?>
<!DOCTYPE svg PUBLIC "-//W3C//DTD SVG 1.1//EN"
 "http://www.w3.org/Graphics/SVG/1.1/DTD/svg11.dtd">
<!-- Generated by graphviz version 2.43.0 (0)
 -->
<!-- Title: %3 Pages: 1 -->
<svg width="882pt" height="254pt"
 viewBox="0.00 0.00 882.00 253.77" xmlns="http://www.w3.org/2000/svg" xmlns:xlink="http://www.w3.org/1999/xlink">
<g id="graph0" class="graph" transform="scale(1 1) rotate(0) translate(4 249.77)">
<title>%3</title>
<!-- Handler -->
<g id="node1" class="node">
<title>Handler</title>
<polygon fill="none" stroke="darkgreen" points="161,-64 95,-64 91,-60 91,-28 157,-28 161,-32 161,-64"/>
<polyline fill="none" stroke="darkgreen" points="157,-60 91,-60 "/>
<polyline fill="none" stroke="darkgreen" points="157,-60 157,-28 "/>
<polyline fill="none" stroke="darkgreen" points="157,-60 161,-64 "/>
<text text-anchor="middle" x="126" y="-42.3" font-family="Lucida Grande, Lucida Sans Unicode, sans-serif" font-size="14.00" fill="darkgreen">Handler</text>
</g>
<!-- Engine -->
<g id="node2" class="node">
<title>Engine</title>
<polygon fill="none" stroke="darkgreen" points="260,-141 202,-141 198,-137 198,-105 256,-105 260,-109 260,-141"/>
<polyline fill="none" stroke="darkgreen" points="256,-137 198,-137 "/>
<polyline fill="none" stroke="darkgreen" points="256,-137 256,-105 "/>
<polyline fill="none" stroke="darkgreen" points="256,-137 260,-141 "/>
<text text-anchor="middle" x="229" y="-119.3" font-family="Lucida Grande, Lucida Sans Unicode, sans-serif" font-size="14.00" fill="darkgreen">Engine</text>
</g>
<!-- Handler&#45;&gt;Engine -->
<g id="edge15" class="edge">
<title>Handler&#45;&gt;Engine</title>
<path fill="none" stroke="#808080" d="M150.68,-64.05C164.13,-74.31 181.16,-87.29 195.81,-98.46"/>
<polygon fill="#808080" stroke="#808080" points="194.04,-101.51 204.12,-104.79 198.29,-95.95 194.04,-101.51"/>
</g>
<!-- Resource -->
<g id="node3" class="node">
<title>Resource</title>
<polygon fill="none" stroke="#808080" stroke-dasharray="1,5" points="751.5,-76 676.5,-76 672.5,-72 672.5,-40 747.5,-40 751.5,-44 751.5,-76"/>
<polyline fill="none" stroke="#808080" stroke-dasharray="1,5" points="747.5,-72 672.5,-72 "/>
<polyline fill="none" stroke="#808080" stroke-dasharray="1,5" points="747.5,-72 747.5,-40 "/>
<polyline fill="none" stroke="#808080" stroke-dasharray="1,5" points="747.5,-72 751.5,-76 "/>
<text text-anchor="middle" x="712" y="-54.3" font-family="Lucida Grande, Lucida Sans Unicode, sans-serif" font-size="14.00" fill="#808080">Resource</text>
</g>
<!-- Handler&#45;&gt;Resource -->
<g id="edge14" class="edge">
<title>Handler&#45;&gt;Resource</title>
<path fill="none" stroke="#808080" d="M161.19,-33.91C202.86,-20.29 275.69,0 340,0 340,0 340,0 467,0 536.45,0 614.09,-22.52 662.74,-39.49"/>
<polygon fill="#808080" stroke="#808080" points="661.78,-42.86 672.37,-42.91 664.12,-36.27 661.78,-42.86"/>
</g>
<!-- GraphDB -->
<g id="node8" class="node">
<title>GraphDB</title>
<path fill="none" stroke="#808080" d="M505.5,-117.48C505.5,-120.11 487.8,-122.25 466,-122.25 444.2,-122.25 426.5,-120.11 426.5,-117.48 426.5,-117.48 426.5,-74.52 426.5,-74.52 426.5,-71.89 444.2,-69.75 466,-69.75 487.8,-69.75 505.5,-71.89 505.5,-74.52 505.5,-74.52 505.5,-117.48 505.5,-117.48"/>
<path fill="none" stroke="#808080" d="M505.5,-117.48C505.5,-114.84 487.8,-112.7 466,-112.7 444.2,-112.7 426.5,-114.84 426.5,-117.48"/>
<text text-anchor="middle" x="466" y="-99.8" font-family="Lucida Grande, Lucida Sans Unicode, sans-serif" font-size="14.00" fill="#808080">Graph</text>
<text text-anchor="middle" x="466" y="-84.8" font-family="Lucida Grande, Lucida Sans Unicode, sans-serif" font-size="14.00" fill="#808080">Database</text>
</g>
<!-- Engine&#45;&gt;GraphDB -->
<g id="edge12" class="edge">
<title>Engine&#45;&gt;GraphDB</title>
<path fill="none" stroke="#808080" d="M260.21,-127.52C291.86,-131.39 342.88,-135.16 386,-127 396.31,-125.05 407,-121.78 417.06,-118.09"/>
<polygon fill="#808080" stroke="#808080" points="418.42,-121.31 426.48,-114.44 415.89,-114.79 418.42,-121.31"/>
</g>
<!-- T_Harness -->
<g id="node9" class="node">
<title>T_Harness</title>
<polygon fill="none" stroke="#808080" points="385,-212 297,-212 297,-174 385,-174 385,-212"/>
<text text-anchor="middle" x="341" y="-196.8" font-family="Lucida Grande, Lucida Sans Unicode, sans-serif" font-size="14.00" fill="#808080">Transform</text>
<text text-anchor="middle" x="341" y="-181.8" font-family="Lucida Grande, Lucida Sans Unicode, sans-serif" font-size="14.00" fill="#808080">Harness</text>
</g>
<!-- Engine&#45;&gt;T_Harness -->
<g id="edge2" class="edge">
<title>Engine&#45;&gt;T_Harness</title>
<path fill="none" stroke="#808080" d="M266.77,-146.4C277.81,-153.43 289.96,-161.16 301.13,-168.27"/>
<polygon fill="#808080" stroke="#808080" points="268.64,-143.44 258.33,-141.03 264.89,-149.35 268.64,-143.44"/>
<polygon fill="#808080" stroke="#808080" points="299.53,-171.39 309.84,-173.81 303.28,-165.49 299.53,-171.39"/>
</g>
<!-- P_Registry -->
<g id="node10" class="node">
<title>P_Registry</title>
<polygon fill="none" stroke="#808080" points="632,-229 548,-229 548,-191 632,-191 632,-229"/>
<text text-anchor="middle" x="590" y="-213.8" font-family="Lucida Grande, Lucida Sans Unicode, sans-serif" font-size="14.00" fill="#808080">Parameter</text>
<text text-anchor="middle" x="590" y="-198.8" font-family="Lucida Grande, Lucida Sans Unicode, sans-serif" font-size="14.00" fill="#808080">Registry</text>
</g>
<!-- Engine&#45;&gt;P_Registry -->
<g id="edge3" class="edge">
<title>Engine&#45;&gt;P_Registry</title>
<path fill="none" stroke="#808080" d="M239.98,-150.61C250.1,-174.08 268.27,-206.24 296,-221 372.41,-261.66 476.58,-243.46 537.92,-226.64"/>
<polygon fill="#808080" stroke="#808080" points="243.14,-149.1 236.12,-141.16 236.66,-151.74 243.14,-149.1"/>
<polygon fill="#808080" stroke="#808080" points="539.08,-229.95 547.75,-223.86 537.18,-223.22 539.08,-229.95"/>
</g>
<!-- Dispatcher -->
<g id="node12" class="node">
<title>Dispatcher</title>
<polygon fill="none" stroke="#808080" points="386,-64 296,-64 296,-28 386,-28 386,-64"/>
<text text-anchor="middle" x="341" y="-42.3" font-family="Lucida Grande, Lucida Sans Unicode, sans-serif" font-size="14.00" fill="#808080">Dispatcher</text>
</g>
<!-- Engine&#45;&gt;Dispatcher -->
<g id="edge1" class="edge">
<title>Engine&#45;&gt;Dispatcher</title>
<path fill="none" stroke="#808080" d="M260.83,-98.66C271.76,-90.29 284.27,-81.01 296,-73 297.61,-71.9 299.26,-70.79 300.94,-69.69"/>
<polygon fill="#808080" stroke="#808080" points="258.59,-95.97 252.81,-104.85 262.86,-101.51 258.59,-95.97"/>
<polygon fill="#808080" stroke="#808080" points="302.94,-72.56 309.45,-64.21 299.15,-66.68 302.94,-72.56"/>
</g>
<!-- Resolver -->
<g id="node14" class="node">
<title>Resolver</title>
<polygon fill="none" stroke="#808080" points="378,-118 304,-118 304,-82 378,-82 378,-118"/>
<text text-anchor="middle" x="341" y="-96.3" font-family="Lucida Grande, Lucida Sans Unicode, sans-serif" font-size="14.00" fill="#808080">Resolver</text>
</g>
<!-- Engine&#45;&gt;Resolver -->
<g id="edge10" class="edge">
<title>Engine&#45;&gt;Resolver</title>
<path fill="none" stroke="#808080" d="M260.06,-116.72C270.49,-114.53 282.44,-112.04 293.86,-109.65"/>
<polygon fill="#808080" stroke="#808080" points="294.64,-113.06 303.72,-107.59 293.21,-106.21 294.64,-113.06"/>
</g>
<!-- Parameter -->
<g id="node4" class="node">
<title>Parameter</title>
<polygon fill="none" stroke="#808080" points="874,-205 794,-205 790,-201 790,-167 870,-167 874,-171 874,-205"/>
<polyline fill="none" stroke="#808080" points="870,-201 790,-201 "/>
<polyline fill="none" stroke="#808080" points="870,-201 870,-167 "/>
<polyline fill="none" stroke="#808080" points="870,-201 874,-205 "/>
<text text-anchor="middle" x="832" y="-189.8" font-family="Lucida Grande, Lucida Sans Unicode, sans-serif" font-size="14.00" fill="#808080">Parameter</text>
<text text-anchor="middle" x="832" y="-174.8" font-family="Lucida Grande, Lucida Sans Unicode, sans-serif" font-size="14.00" fill="#808080">Template</text>
</g>
<!-- P_Group -->
<g id="node5" class="node">
<title>P_Group</title>
<polygon fill="none" stroke="#808080" points="754,-182 674,-182 670,-178 670,-144 750,-144 754,-148 754,-182"/>
<polyline fill="none" stroke="#808080" points="750,-178 670,-178 "/>
<polyline fill="none" stroke="#808080" points="750,-178 750,-144 "/>
<polyline fill="none" stroke="#808080" points="750,-178 754,-182 "/>
<text text-anchor="middle" x="712" y="-166.8" font-family="Lucida Grande, Lucida Sans Unicode, sans-serif" font-size="14.00" fill="#808080">Parameter</text>
<text text-anchor="middle" x="712" y="-151.8" font-family="Lucida Grande, Lucida Sans Unicode, sans-serif" font-size="14.00" fill="#808080">Group</text>
</g>
<!-- P_Group&#45;&gt;Parameter -->
<g id="edge19" class="edge">
<title>P_Group&#45;&gt;Parameter</title>
<path fill="none" stroke="#808080" d="M754.27,-171.04C762.58,-172.66 771.41,-174.39 780.01,-176.06"/>
<polygon fill="#808080" stroke="#808080" points="779.47,-179.52 789.95,-178 780.81,-172.65 779.47,-179.52"/>
</g>
<!-- Queue -->
<g id="node6" class="node">
<title>Queue</title>
<polygon fill="none" stroke="#808080" points="510,-178 426,-178 422,-174 422,-140 506,-140 510,-144 510,-178"/>
<polyline fill="none" stroke="#808080" points="506,-174 422,-174 "/>
<polyline fill="none" stroke="#808080" points="506,-174 506,-140 "/>
<polyline fill="none" stroke="#808080" points="506,-174 510,-178 "/>
<text text-anchor="middle" x="466" y="-162.8" font-family="Lucida Grande, Lucida Sans Unicode, sans-serif" font-size="14.00" fill="#808080">Transform</text>
<text text-anchor="middle" x="466" y="-147.8" font-family="Lucida Grande, Lucida Sans Unicode, sans-serif" font-size="14.00" fill="#808080">Queue</text>
</g>
<!-- Entry -->
<g id="node7" class="node">
<title>Entry</title>
<polygon fill="none" stroke="#808080" points="634,-173 550,-173 546,-169 546,-135 630,-135 634,-139 634,-173"/>
<polyline fill="none" stroke="#808080" points="630,-169 546,-169 "/>
<polyline fill="none" stroke="#808080" points="630,-169 630,-135 "/>
<polyline fill="none" stroke="#808080" points="630,-169 634,-173 "/>
<text text-anchor="middle" x="590" y="-157.8" font-family="Lucida Grande, Lucida Sans Unicode, sans-serif" font-size="14.00" fill="#808080">Transform</text>
<text text-anchor="middle" x="590" y="-142.8" font-family="Lucida Grande, Lucida Sans Unicode, sans-serif" font-size="14.00" fill="#808080">(Metadata)</text>
</g>
<!-- Queue&#45;&gt;Entry -->
<g id="edge17" class="edge">
<title>Queue&#45;&gt;Entry</title>
<path fill="none" stroke="#808080" d="M510.01,-157.24C518.4,-156.89 527.28,-156.53 535.94,-156.17"/>
<polygon fill="#808080" stroke="#808080" points="536.12,-159.67 545.96,-155.76 535.83,-152.68 536.12,-159.67"/>
</g>
<!-- Entry&#45;&gt;Resource -->
<g id="edge6" class="edge">
<title>Entry&#45;&gt;Resource</title>
<path fill="none" stroke="#808080" stroke-dasharray="1,5" d="M615,-134.8C633.75,-119.8 659.96,-98.84 680.25,-82.6"/>
<polygon fill="#808080" stroke="#808080" points="682.64,-85.17 688.27,-76.19 678.27,-79.7 682.64,-85.17"/>
</g>
<!-- Entry&#45;&gt;P_Group -->
<g id="edge7" class="edge">
<title>Entry&#45;&gt;P_Group</title>
<path fill="none" stroke="#808080" stroke-dasharray="1,5" d="M634.32,-157.25C642.53,-157.86 651.19,-158.51 659.62,-159.15"/>
<polygon fill="#808080" stroke="#808080" points="659.51,-162.65 669.74,-159.91 660.03,-155.67 659.51,-162.65"/>
</g>
<!-- T_Harness&#45;&gt;Queue -->
<g id="edge16" class="edge">
<title>T_Harness&#45;&gt;Queue</title>
<path fill="none" stroke="#808080" d="M385.02,-181.11C393.77,-178.69 403.07,-176.12 412.12,-173.62"/>
<polygon fill="#808080" stroke="#808080" points="413.09,-176.98 421.8,-170.94 411.23,-170.23 413.09,-176.98"/>
</g>
<!-- T_Harness&#45;&gt;P_Registry -->
<g id="edge18" class="edge">
<title>T_Harness&#45;&gt;P_Registry</title>
<path fill="none" stroke="#808080" d="M385.02,-195.96C427.47,-198.88 492.37,-203.35 537.53,-206.46"/>
<polygon fill="#808080" stroke="#808080" points="537.48,-209.96 547.7,-207.16 537.97,-202.98 537.48,-209.96"/>
</g>
<!-- P_Registry&#45;&gt;Parameter -->
<g id="edge5" class="edge">
<title>P_Registry&#45;&gt;Parameter</title>
<path fill="none" stroke="#808080" d="M642.47,-204.85C683,-200.8 739.2,-195.18 779.69,-191.13"/>
<polygon fill="#808080" stroke="#808080" points="641.86,-201.4 632.26,-205.87 642.56,-208.36 641.86,-201.4"/>
<polygon fill="#808080" stroke="#808080" points="780.28,-194.59 789.88,-190.11 779.58,-187.62 780.28,-194.59"/>
</g>
<!-- P_Registry&#45;&gt;P_Group -->
<g id="edge4" class="edge">
<title>P_Registry&#45;&gt;P_Group</title>
<path fill="none" stroke="#808080" d="M641.82,-190.1C647.9,-187.71 654.12,-185.28 660.21,-182.89"/>
<polygon fill="#808080" stroke="#808080" points="640.33,-186.92 632.3,-193.83 642.88,-193.44 640.33,-186.92"/>
<polygon fill="#808080" stroke="#808080" points="661.59,-186.11 669.63,-179.2 659.04,-179.59 661.59,-186.11"/>
</g>
<!-- Harness -->
<g id="node11" class="node">
<title>Harness</title>
<polygon fill="none" stroke="darkgreen" points="162,-141 90,-141 90,-105 162,-105 162,-141"/>
<text text-anchor="middle" x="126" y="-119.3" font-family="Lucida Grande, Lucida Sans Unicode, sans-serif" font-size="14.00" fill="darkgreen">Harness</text>
</g>
<!-- Harness&#45;&gt;Engine -->
<g id="edge9" class="edge">
<title>Harness&#45;&gt;Engine</title>
<path fill="none" stroke="#808080" d="M162.04,-123C170.3,-123 179.18,-123 187.66,-123"/>
<polygon fill="#808080" stroke="#808080" points="187.73,-126.5 197.73,-123 187.73,-119.5 187.73,-126.5"/>
</g>
<!-- Dispatcher&#45;&gt;Handler -->
<g id="edge13" class="edge">
<title>Dispatcher&#45;&gt;Handler</title>
<path fill="none" stroke="#808080" d="M295.88,-46C259.49,-46 208.09,-46 171.57,-46"/>
<polygon fill="#808080" stroke="#808080" points="171.22,-42.5 161.22,-46 171.22,-49.5 171.22,-42.5"/>
</g>
<!-- CLI -->
<g id="node13" class="node">
<title>CLI</title>
<polygon fill="none" stroke="#808080" points="54,-141 0,-141 0,-105 54,-105 54,-141"/>
<text text-anchor="middle" x="27" y="-119.3" font-family="Lucida Grande, Lucida Sans Unicode, sans-serif" font-size="14.00" fill="#808080">CLI</text>
</g>
<!-- CLI&#45;&gt;Harness -->
<g id="edge8" class="edge">
<title>CLI&#45;&gt;Harness</title>
<path fill="none" stroke="#808080" d="M54.25,-123C62.15,-123 71.06,-123 79.83,-123"/>
<polygon fill="#808080" stroke="#808080" points="79.98,-126.5 89.98,-123 79.98,-119.5 79.98,-126.5"/>
</g>
<!-- Resolver&#45;&gt;GraphDB -->
<g id="edge11" class="edge">
<title>Resolver&#45;&gt;GraphDB</title>
<path fill="none" stroke="#808080" d="M378.24,-98.82C390.2,-98.43 403.71,-97.99 416.45,-97.58"/>
<polygon fill="#808080" stroke="#808080" points="416.57,-101.08 426.45,-97.25 416.34,-94.08 416.57,-101.08"/>
</g>
</g>
</svg>
